<mxfile host="app.diagrams.net" modified="2023-11-20T05:34:45.372Z" agent="Mozilla/5.0 (Windows NT 10.0; Win64; x64) AppleWebKit/537.36 (KHTML, like Gecko) Chrome/119.0.0.0 Safari/537.36 Edg/119.0.0.0" etag="f92hZTJ8TuHnGawYdTQH" version="22.1.3" type="device">
  <diagram name="Page-1" id="Jvx5jlItk3KfblAPSQlU">
    <mxGraphModel dx="506" dy="259" grid="0" gridSize="10" guides="1" tooltips="1" connect="1" arrows="1" fold="1" page="1" pageScale="1" pageWidth="850" pageHeight="1100" math="0" shadow="0">
      <root>
        <mxCell id="0" />
        <mxCell id="1" parent="0" />
        <mxCell id="LFAMustBLJq5Y2oGJ_zo-5" style="edgeStyle=orthogonalEdgeStyle;rounded=0;orthogonalLoop=1;jettySize=auto;html=1;exitX=1;exitY=0.5;exitDx=0;exitDy=0;entryX=0;entryY=0.5;entryDx=0;entryDy=0;" edge="1" parent="1" source="LFAMustBLJq5Y2oGJ_zo-1" target="LFAMustBLJq5Y2oGJ_zo-4">
          <mxGeometry relative="1" as="geometry" />
        </mxCell>
        <mxCell id="LFAMustBLJq5Y2oGJ_zo-1" value="Run Direction of Arrival Algorithms" style="rounded=0;whiteSpace=wrap;html=1;" vertex="1" parent="1">
          <mxGeometry x="320" y="120" width="120" height="60" as="geometry" />
        </mxCell>
        <mxCell id="LFAMustBLJq5Y2oGJ_zo-3" style="edgeStyle=orthogonalEdgeStyle;rounded=0;orthogonalLoop=1;jettySize=auto;html=1;exitX=1;exitY=0.5;exitDx=0;exitDy=0;entryX=0;entryY=0.5;entryDx=0;entryDy=0;" edge="1" parent="1" source="LFAMustBLJq5Y2oGJ_zo-2" target="LFAMustBLJq5Y2oGJ_zo-1">
          <mxGeometry relative="1" as="geometry" />
        </mxCell>
        <mxCell id="LFAMustBLJq5Y2oGJ_zo-2" value="Create ULA Data" style="rounded=0;whiteSpace=wrap;html=1;" vertex="1" parent="1">
          <mxGeometry x="160" y="120" width="120" height="60" as="geometry" />
        </mxCell>
        <mxCell id="LFAMustBLJq5Y2oGJ_zo-4" value="Plot Spatial Spectrums" style="rounded=0;whiteSpace=wrap;html=1;" vertex="1" parent="1">
          <mxGeometry x="480" y="120" width="120" height="60" as="geometry" />
        </mxCell>
      </root>
    </mxGraphModel>
  </diagram>
</mxfile>
